<svg xmlns="http://www.w3.org/2000/svg" width="32" height="32" fill="none" viewBox="0 0 32 32">
  <circle cx="16" cy="16" r="16" fill="#25D366"/>
  <path fill="#fff" d="M21.8 18.9c-.3-.2-1.5-.7-1.7-.8-.2-.1-.3-.1-.5.1-.1.2-.6.8-.8 1-.2.1-.3.2-.6.1-1.5-.6-2.7-2.1-2.7-3.1 0-.2.1-.3.2-.4.1-.1.2-.2.3-.4.1-.1.2-.2.2-.3.1-.2.1-.3 0-.5-.1-.2-.6-1.5-.8-2-.2-.5-.4-.4-.5-.4h-.4c-.2 0-.5.1-.7.3-.2.2-.8.8-.8 2s.9 2.2 1 2.4c.1.2 1.7 2.7 4.2 3.7.6.2 1 .3 1.3.2.4-.1 1.3-.5 1.5-1 .2-.5.2-1 .2-1.1 0-.1-.2-.2-.5-.3Z"/>
</svg>
